# xmcd
#
# Track frame offsets: 
#        180
#        15824
#        30521
#        46721
#        62248
#        77096
#        92248
#        108522
#        121646
#        136048
#        147476
#        158128
#        172152
#        186223
#
# Disc length: 2664 seconds
#
# Revision: 9
# Processed by: cddbd v1.5.2PL0 Copyright (c) Steve Scherf et al.
# Submitted via: ExactAudioCopyFreeDBPlugin 1.0
#
DISCID=ad0a660e
DTITLE=Joan Baez - Joan Baez [compilation]
DYEAR=1998
DGENRE=Folk
TTITLE0=We Shall Overcome
TTITLE1=There But For Fortune
TTITLE2=Love Is Just A Four-Letter Word
TTITLE3=It's All Over Now, Baby Blue
TTITLE4=Farewell Angelina
TTITLE5=The Night They Drove Old Dixie Down
TTITLE6=Let It Be
TTITLE7=House Of The Rising Sun
TTITLE8=The Brand New Tennessee Waltz
TTITLE9=What Have They Done To The Rain
TTITLE10=Eleanor Rigby
TTITLE11=Don't Think Twice It's All Right
TTITLE12=Blessed Are ...
TTITLE13=Help Me Make It Through The Night
EXTD=
EXTT0=
EXTT1=
EXTT2=
EXTT3=
EXTT4=
EXTT5=
EXTT6=
EXTT7=
EXTT8=
EXTT9=
EXTT10=
EXTT11=
EXTT12=
EXTT13=
PLAYORDER=
